<svg xmlns="http://www.w3.org/2000/svg" viewBox="0 0 108 108" role="img" aria-label="Pantry Flow">
  <rect x="6" y="14" width="96" height="80" rx="18" fill="#fff"/>
  <circle cx="54" cy="48" r="38" fill="#D3E1C9" opacity=".1"/>
  <circle cx="70" cy="33" r="19" fill="#E7EFE0" opacity=".12"/>
  <g transform="translate(21 20) scale(2.7)">
    <path fill="#2F6C1F" d="M6.05 8.05c-1.73 1.73-2.09 4.35-1.08 6.43l-2.19 2.19 1.41 1.41 2.19-2.19c2.08 1.01 4.7.65 6.43-1.08 2.37-2.37 2.1-6.89 2.1-6.89s-4.52-.27-6.89 2.1z"/>
    <path fill="#5EA834" d="M13.54 12.46c1.73-1.73 4.35-2.09 6.43-1.08l2.19-2.19 1.41 1.41-2.19 2.19c1.01 2.08.65 4.7-1.08 6.43-2.37 2.37-6.89 2.1-6.89 2.1s-.27-4.52 2.1-6.89z"/>
    <g transform="translate(-.4 -5.4) rotate(-12 12 12) scale(.6)">
      <path fill="#8FD54A" d="M13.54 12.46c1.73-1.73 4.35-2.09 6.43-1.08l2.19-2.19 1.41 1.41-2.19 2.19c1.01 2.08.65 4.7-1.08 6.43-2.37 2.37-6.89 2.1-6.89 2.1s-.27-4.52 2.1-6.89z"/>
    </g>
    <path fill="#28591A" d="M11.35 19.85c.18-2.56.92-4.94 2.22-7.12 1.01-1.69 2.41-3.34 4.22-4.97l.98.98c-1.64 1.49-2.9 2.98-3.8 4.47-1.13 1.89-1.76 3.97-1.91 6.24z"/>
  </g>
</svg>
